<svg xmlns="http://www.w3.org/2000/svg" version="1.1" xmlns:xlink="http://www.w3.org/1999/xlink" width="1000" height="1000"><style>
    #light-icon {
      display: inline;
    }
    #dark-icon {
      display: none;
    }

    @media (prefers-color-scheme: dark) {
      #light-icon {
        display: none;
      }
      #dark-icon {
        display: inline;
      }
    }
  </style><g id="light-icon"><svg xmlns="http://www.w3.org/2000/svg" version="1.1" xmlns:xlink="http://www.w3.org/1999/xlink" width="1000" height="1000"><g clip-path="url(#SvgjsClipPath1065)"><rect width="1000" height="1000" fill="#ffffff"></rect><g transform="matrix(62.5,0,0,62.5,0,0)"><svg xmlns="http://www.w3.org/2000/svg" width="16" height="16" viewBox="0 0 16 16" fill="none"><rect width="16" height="16" fill="#1E2945"></rect><path d="M13.72 9.30528C13.452 9.30528 13.2589 9.24373 13.1446 9.1295C13.0349 9.01084 12.9822 8.81773 12.9822 8.54084V6.52928H12.9777V6.2395C12.9777 5.42261 12.42 4.73728 11.6249 4.57039C10.8255 4.4035 10.0437 4.81195 9.71863 5.55861L8.49752 8.62439V6.2395C8.49752 5.42261 7.93975 4.73728 7.14041 4.57039C6.34552 4.40795 5.56352 4.81195 5.23863 5.56306L4.01752 8.62439V4.71995H2.1333V9.51195C2.1333 10.3288 2.69108 11.0142 3.49041 11.1811C4.2853 11.3435 5.0673 10.9395 5.39219 10.1884L6.6133 7.37728V9.51195C6.6133 10.3288 7.17108 11.0142 7.97041 11.1811C8.08908 11.2031 8.20752 11.2162 8.32175 11.2162C8.9893 11.2162 9.59552 10.8253 9.87219 10.1928L11.0933 7.3775V9.14328C11.0933 9.80217 11.2953 10.3115 11.6951 10.6806C12.0949 11.0364 12.6262 11.2164 13.2937 11.2164C13.478 11.2164 13.66 11.2039 13.8471 11.1742V9.3015C13.8031 9.3015 13.7593 9.30595 13.7197 9.30595L13.72 9.30528Z" fill="#00BED5"></path></svg></g></g><defs><clipPath id="SvgjsClipPath1065"><rect width="1000" height="1000" x="0" y="0" rx="500" ry="500"></rect></clipPath></defs></svg></g><g id="dark-icon"><svg xmlns="http://www.w3.org/2000/svg" version="1.1" xmlns:xlink="http://www.w3.org/1999/xlink" width="1000" height="1000"><g><g transform="matrix(3.4722222222222223,0,0,3.4722222222222223,0,0)"><svg xmlns="http://www.w3.org/2000/svg" width="288" height="288" viewBox="0 0 288 288" fill="none"><path d="M284.875 182.858C278.286 182.858 273.538 181.344 270.729 178.536C268.03 175.619 266.735 170.871 266.735 164.063V114.606H266.626V107.481C266.626 87.3969 252.912 70.547 233.363 66.4438C213.711 62.3406 194.49 72.3827 186.496 90.7406L156.474 166.117V107.481C156.474 87.3969 142.76 70.547 123.107 66.4438C103.564 62.4499 84.3369 72.3827 76.3491 90.8499L46.3263 166.117V70.1208H0V187.939C0 208.023 13.7138 224.873 33.3665 228.977C52.91 232.97 72.1366 223.038 80.1244 204.57L110.147 135.455V187.939C110.147 208.023 123.861 224.873 143.514 228.977C146.431 229.517 149.343 229.84 152.152 229.84C168.565 229.84 183.469 220.229 190.272 204.68L220.294 135.461V178.875C220.294 195.075 225.261 207.597 235.09 216.672C244.919 225.42 257.983 229.845 274.396 229.845C278.925 229.845 283.4 229.539 288 228.807V182.765C286.918 182.765 285.842 182.874 284.869 182.874L284.875 182.858Z" fill="#00BED5"></path></svg></g></g></svg></g></svg>